<svg width="1590" height="1193" viewBox="0 0 1590 1193" fill="none" xmlns="http://www.w3.org/2000/svg">
<g clip-path="url(#clip0_28_35)">
<rect width="1590" height="1193" fill="white"/>
<rect width="569" height="1193" fill="#474656"/>
<rect x="569" y="575" width="504" height="618" fill="#F6F5FA"/>
<rect x="1073" y="575" width="517" height="618" fill="#FF916D"/>
<rect x="569" width="1021" height="575" fill="#FF6C3E"/>
<path d="M611.648 526H607.102L613.523 492.18H618.07L616.055 502.797H615.844L613.594 514.609H613.805L611.648 526ZM623.039 526H618.445L620.602 514.586H620.812L623.062 502.773H622.852L624.891 492.18H629.461L623.039 526ZM630.445 517.258H603.422L604.289 512.805H611.93V513.016H623.531V512.805H631.289L630.445 517.258ZM632.625 505H624.75V504.789H613.172L613.148 505H605.578L606.445 500.547H633.469L632.625 505ZM636.445 526V492.18H658.008V497.266H642.492V507.273H656.672V512.195H642.492V526H636.445ZM662.414 526V492.18H683.977V497.266H668.461V507.273H682.641V512.195H668.461V526H662.414ZM701.039 526.586C699.18 526.586 697.43 526.25 695.789 525.578C694.148 524.906 692.695 523.875 691.43 522.484C690.18 521.094 689.195 519.328 688.477 517.188C687.758 515.031 687.398 512.469 687.398 509.5V509.453C687.398 505.734 687.945 502.539 689.039 499.867C690.148 497.195 691.734 495.148 693.797 493.727C695.859 492.305 698.32 491.594 701.18 491.594C703.273 491.594 705.156 491.969 706.828 492.719C708.516 493.453 709.906 494.477 711 495.789C712.109 497.102 712.836 498.609 713.18 500.312L713.25 500.57H707.25L707.156 500.359C706.859 499.578 706.43 498.906 705.867 498.344C705.32 497.766 704.648 497.32 703.852 497.008C703.07 496.68 702.172 496.516 701.156 496.516C699.344 496.516 697.867 497.047 696.727 498.109C695.586 499.156 694.734 500.555 694.172 502.305C693.609 504.055 693.289 506 693.211 508.141C693.195 508.344 693.18 508.547 693.164 508.75C693.164 508.953 693.164 509.156 693.164 509.359L694.219 514.961C694.219 516.195 694.516 517.32 695.109 518.336C695.703 519.352 696.516 520.156 697.547 520.75C698.578 521.344 699.719 521.641 700.969 521.641C702.234 521.641 703.375 521.352 704.391 520.773C705.422 520.18 706.234 519.391 706.828 518.406C707.438 517.406 707.742 516.297 707.742 515.078V515.031C707.742 513.75 707.453 512.617 706.875 511.633C706.297 510.633 705.5 509.852 704.484 509.289C703.484 508.727 702.336 508.445 701.039 508.445C699.758 508.445 698.602 508.727 697.57 509.289C696.539 509.836 695.719 510.602 695.109 511.586C694.516 512.555 694.219 513.672 694.219 514.938V514.961H692.789V509.219H693.305C693.742 508.188 694.398 507.266 695.273 506.453C696.164 505.641 697.227 504.992 698.461 504.508C699.695 504.023 701.078 503.781 702.609 503.781C704.781 503.781 706.695 504.258 708.352 505.211C710.023 506.164 711.328 507.477 712.266 509.148C713.219 510.805 713.695 512.695 713.695 514.82V514.867C713.695 517.148 713.148 519.172 712.055 520.938C710.961 522.688 709.461 524.07 707.555 525.086C705.648 526.086 703.477 526.586 701.039 526.586ZM733.805 526.586C730.57 526.586 727.758 525.875 725.367 524.453C722.992 523.031 721.156 521.016 719.859 518.406C718.578 515.781 717.938 512.672 717.938 509.078V509.055C717.938 505.461 718.586 502.359 719.883 499.75C721.18 497.141 723.016 495.133 725.391 493.727C727.766 492.305 730.57 491.594 733.805 491.594C736.398 491.594 738.719 492.094 740.766 493.094C742.828 494.094 744.508 495.477 745.805 497.242C747.102 499.008 747.898 501.039 748.195 503.336L748.219 503.57H742.289L742.172 503.125C741.844 501.828 741.305 500.711 740.555 499.773C739.805 498.836 738.859 498.109 737.719 497.594C736.578 497.078 735.273 496.82 733.805 496.82C731.836 496.82 730.125 497.32 728.672 498.32C727.219 499.32 726.094 500.734 725.297 502.562C724.5 504.375 724.102 506.539 724.102 509.055V509.078C724.102 511.578 724.5 513.75 725.297 515.594C726.094 517.422 727.219 518.844 728.672 519.859C730.141 520.859 731.852 521.359 733.805 521.359C735.242 521.359 736.523 521.109 737.648 520.609C738.789 520.094 739.75 519.352 740.531 518.383C741.312 517.414 741.883 516.234 742.242 514.844L742.312 514.609H748.242L748.195 514.867C747.914 517.164 747.125 519.195 745.828 520.961C744.531 522.727 742.852 524.109 740.789 525.109C738.727 526.094 736.398 526.586 733.805 526.586ZM764.508 526.586C762.039 526.586 759.883 526.172 758.039 525.344C756.195 524.516 754.734 523.383 753.656 521.945C752.594 520.492 751.977 518.828 751.805 516.953L751.781 516.648H757.547L757.594 516.906C757.703 517.828 758.055 518.648 758.648 519.367C759.242 520.07 760.039 520.625 761.039 521.031C762.039 521.438 763.195 521.641 764.508 521.641C765.82 521.641 766.961 521.422 767.93 520.984C768.914 520.531 769.672 519.914 770.203 519.133C770.75 518.352 771.023 517.445 771.023 516.414V516.367C771.023 514.586 770.406 513.219 769.172 512.266C767.953 511.312 766.258 510.836 764.086 510.836H760.078V506.336H763.945C765.195 506.336 766.281 506.117 767.203 505.68C768.141 505.242 768.867 504.648 769.383 503.898C769.914 503.133 770.18 502.258 770.18 501.273V501.227C770.18 500.195 769.953 499.328 769.5 498.625C769.047 497.906 768.391 497.359 767.531 496.984C766.688 496.594 765.664 496.398 764.461 496.398C763.273 496.398 762.219 496.594 761.297 496.984C760.391 497.375 759.664 497.93 759.117 498.648C758.57 499.352 758.242 500.188 758.133 501.156L758.109 501.391H752.508L752.531 501.109C752.703 499.203 753.297 497.539 754.312 496.117C755.344 494.695 756.727 493.586 758.461 492.789C760.195 491.992 762.195 491.594 764.461 491.594C766.789 491.594 768.812 491.969 770.531 492.719C772.266 493.453 773.602 494.484 774.539 495.812C775.492 497.125 775.969 498.664 775.969 500.43V500.477C775.969 501.867 775.656 503.102 775.031 504.18C774.406 505.242 773.555 506.125 772.477 506.828C771.414 507.531 770.211 508.023 768.867 508.305V508.422C771.367 508.656 773.375 509.484 774.891 510.906C776.406 512.312 777.164 514.188 777.164 516.531V516.578C777.164 518.531 776.625 520.266 775.547 521.781C774.484 523.281 773.008 524.461 771.117 525.32C769.227 526.164 767.023 526.586 764.508 526.586ZM782.414 526V492.18H804.305V497.266H788.461V506.383H803.438V511.258H788.461V520.914H804.305V526H782.414Z" fill="#474657"/>
<path d="M1139.38 1134H1134.83L1141.25 1100.18H1145.8L1143.78 1110.8H1143.57L1141.32 1122.61H1141.53L1139.38 1134ZM1150.77 1134H1146.17L1148.33 1122.59H1148.54L1150.79 1110.77H1150.58L1152.62 1100.18H1157.19L1150.77 1134ZM1158.17 1125.26H1131.15L1132.02 1120.8H1139.66V1121.02H1151.26V1120.8H1159.02L1158.17 1125.26ZM1160.35 1113H1152.48V1112.79H1140.9L1140.88 1113H1133.3L1134.17 1108.55H1161.2L1160.35 1113ZM1164.17 1134V1100.18H1185.73V1105.27H1170.22V1115.27H1184.4V1120.2H1170.22V1134H1164.17ZM1190.14 1134V1100.18H1211.7V1105.27H1196.19V1115.27H1210.37V1120.2H1196.19V1134H1190.14ZM1228.18 1099.59C1230.04 1099.59 1231.79 1099.93 1233.43 1100.6C1235.09 1101.27 1236.54 1102.3 1237.79 1103.7C1239.05 1105.09 1240.04 1106.86 1240.74 1109.02C1241.46 1111.16 1241.82 1113.71 1241.82 1116.68V1116.73C1241.82 1120.45 1241.27 1123.64 1240.16 1126.31C1239.06 1128.98 1237.48 1131.03 1235.42 1132.45C1233.38 1133.88 1230.91 1134.59 1228.04 1134.59C1225.96 1134.59 1224.08 1134.21 1222.39 1133.46C1220.72 1132.71 1219.33 1131.69 1218.22 1130.39C1217.12 1129.08 1216.4 1127.57 1216.04 1125.87L1215.99 1125.61H1221.97L1222.06 1125.82C1222.38 1126.59 1222.8 1127.26 1223.35 1127.84C1223.9 1128.41 1224.57 1128.87 1225.37 1129.2C1226.16 1129.51 1227.06 1129.66 1228.06 1129.66C1229.89 1129.66 1231.37 1129.14 1232.49 1128.09C1233.63 1127.03 1234.48 1125.62 1235.05 1123.88C1235.62 1122.11 1235.95 1120.16 1236.01 1118.04C1236.02 1117.84 1236.03 1117.63 1236.03 1117.43C1236.05 1117.23 1236.05 1117.02 1236.05 1116.82L1235 1111.22C1235 1109.97 1234.7 1108.84 1234.11 1107.84C1233.52 1106.83 1232.7 1106.02 1231.67 1105.43C1230.66 1104.84 1229.52 1104.54 1228.25 1104.54C1227 1104.54 1225.86 1104.84 1224.83 1105.43C1223.8 1106.01 1222.98 1106.8 1222.37 1107.8C1221.77 1108.78 1221.48 1109.88 1221.48 1111.1V1111.15C1221.48 1112.43 1221.77 1113.57 1222.34 1114.57C1222.92 1115.55 1223.72 1116.33 1224.73 1116.89C1225.75 1117.45 1226.9 1117.73 1228.18 1117.73C1229.48 1117.73 1230.64 1117.46 1231.67 1116.91C1232.7 1116.35 1233.52 1115.59 1234.11 1114.62C1234.7 1113.63 1235 1112.51 1235 1111.24V1111.22H1236.43V1116.96H1235.94C1235.48 1117.99 1234.82 1118.91 1233.95 1119.73C1233.07 1120.54 1232.02 1121.19 1230.78 1121.67C1229.55 1122.16 1228.16 1122.4 1226.63 1122.4C1224.46 1122.4 1222.54 1121.92 1220.87 1120.97C1219.2 1120.02 1217.88 1118.7 1216.93 1117.03C1215.99 1115.36 1215.52 1113.47 1215.52 1111.36V1111.31C1215.52 1109.03 1216.07 1107.02 1217.16 1105.27C1218.27 1103.5 1219.77 1102.12 1221.66 1101.12C1223.57 1100.1 1225.74 1099.59 1228.18 1099.59ZM1254.55 1134V1105.92H1254.41L1245.66 1111.92V1106.39L1254.5 1100.18H1260.48V1134H1254.55ZM1281.55 1134.59C1279.69 1134.59 1277.94 1134.25 1276.3 1133.58C1274.66 1132.91 1273.2 1131.88 1271.94 1130.48C1270.69 1129.09 1269.7 1127.33 1268.98 1125.19C1268.27 1123.03 1267.91 1120.47 1267.91 1117.5V1117.45C1267.91 1113.73 1268.45 1110.54 1269.55 1107.87C1270.66 1105.2 1272.24 1103.15 1274.3 1101.73C1276.37 1100.3 1278.83 1099.59 1281.69 1099.59C1283.78 1099.59 1285.66 1099.97 1287.34 1100.72C1289.02 1101.45 1290.41 1102.48 1291.51 1103.79C1292.62 1105.1 1293.34 1106.61 1293.69 1108.31L1293.76 1108.57H1287.76L1287.66 1108.36C1287.37 1107.58 1286.94 1106.91 1286.38 1106.34C1285.83 1105.77 1285.16 1105.32 1284.36 1105.01C1283.58 1104.68 1282.68 1104.52 1281.66 1104.52C1279.85 1104.52 1278.38 1105.05 1277.23 1106.11C1276.09 1107.16 1275.24 1108.55 1274.68 1110.3C1274.12 1112.05 1273.8 1114 1273.72 1116.14C1273.7 1116.34 1273.69 1116.55 1273.67 1116.75C1273.67 1116.95 1273.67 1117.16 1273.67 1117.36L1274.73 1122.96C1274.73 1124.2 1275.02 1125.32 1275.62 1126.34C1276.21 1127.35 1277.02 1128.16 1278.05 1128.75C1279.09 1129.34 1280.23 1129.64 1281.48 1129.64C1282.74 1129.64 1283.88 1129.35 1284.9 1128.77C1285.93 1128.18 1286.74 1127.39 1287.34 1126.41C1287.95 1125.41 1288.25 1124.3 1288.25 1123.08V1123.03C1288.25 1121.75 1287.96 1120.62 1287.38 1119.63C1286.8 1118.63 1286.01 1117.85 1284.99 1117.29C1283.99 1116.73 1282.84 1116.45 1281.55 1116.45C1280.27 1116.45 1279.11 1116.73 1278.08 1117.29C1277.05 1117.84 1276.23 1118.6 1275.62 1119.59C1275.02 1120.55 1274.73 1121.67 1274.73 1122.94V1122.96H1273.3V1117.22H1273.81C1274.25 1116.19 1274.91 1115.27 1275.78 1114.45C1276.67 1113.64 1277.73 1112.99 1278.97 1112.51C1280.2 1112.02 1281.59 1111.78 1283.12 1111.78C1285.29 1111.78 1287.2 1112.26 1288.86 1113.21C1290.53 1114.16 1291.84 1115.48 1292.77 1117.15C1293.73 1118.8 1294.2 1120.7 1294.2 1122.82V1122.87C1294.2 1125.15 1293.66 1127.17 1292.56 1128.94C1291.47 1130.69 1289.97 1132.07 1288.06 1133.09C1286.16 1134.09 1283.98 1134.59 1281.55 1134.59ZM1299.59 1134V1100.18H1311.95C1315.32 1100.18 1318.2 1100.84 1320.59 1102.15C1322.98 1103.46 1324.82 1105.37 1326.1 1107.87C1327.38 1110.37 1328.02 1113.4 1328.02 1116.96V1117.01C1328.02 1120.57 1327.38 1123.62 1326.1 1126.17C1324.84 1128.7 1323 1130.64 1320.59 1131.98C1318.2 1133.33 1315.32 1134 1311.95 1134H1299.59ZM1305.64 1128.91H1311.31C1313.59 1128.91 1315.52 1128.46 1317.08 1127.55C1318.64 1126.63 1319.83 1125.3 1320.64 1123.55C1321.45 1121.78 1321.86 1119.61 1321.86 1117.03V1116.98C1321.86 1114.47 1321.45 1112.34 1320.62 1110.59C1319.8 1108.84 1318.61 1107.52 1317.03 1106.62C1315.47 1105.72 1313.56 1105.27 1311.31 1105.27H1305.64V1128.91Z" fill="#F6F5FA"/>
<path d="M90.7109 1134H86.1641L92.5859 1100.18H97.1328L95.1172 1110.8H94.9062L92.6562 1122.61H92.8672L90.7109 1134ZM102.102 1134H97.5078L99.6641 1122.59H99.875L102.125 1110.77H101.914L103.953 1100.18H108.523L102.102 1134ZM109.508 1125.26H82.4844L83.3516 1120.8H90.9922V1121.02H102.594V1120.8H110.352L109.508 1125.26ZM111.688 1113H103.812V1112.79H92.2344L92.2109 1113H84.6406L85.5078 1108.55H112.531L111.688 1113ZM131.141 1134V1127.48H114.266V1122.35C115.203 1120.88 116.141 1119.41 117.078 1117.92C118.016 1116.44 118.953 1114.96 119.891 1113.49C120.828 1112.01 121.758 1110.53 122.68 1109.06C123.617 1107.58 124.555 1106.1 125.492 1104.63C126.43 1103.15 127.367 1101.66 128.305 1100.18H136.906V1122.56H141.477V1127.48H136.906V1134H131.141ZM119.703 1122.68H131.234V1104.75H131.094C130.328 1105.94 129.562 1107.12 128.797 1108.31C128.047 1109.48 127.289 1110.66 126.523 1111.85C125.773 1113.04 125.016 1114.23 124.25 1115.41C123.484 1116.6 122.719 1117.79 121.953 1118.98C121.203 1120.15 120.453 1121.33 119.703 1122.52V1122.68ZM146.727 1134L161.562 1105.24V1105.12H143.984V1100.18H167.516V1105.22L153.055 1134H146.727ZM185.188 1134V1127.48H168.312V1122.35C169.25 1120.88 170.188 1119.41 171.125 1117.92C172.062 1116.44 173 1114.96 173.938 1113.49C174.875 1112.01 175.805 1110.53 176.727 1109.06C177.664 1107.58 178.602 1106.1 179.539 1104.63C180.477 1103.15 181.414 1101.66 182.352 1100.18H190.953V1122.56H195.523V1127.48H190.953V1134H185.188ZM173.75 1122.68H185.281V1104.75H185.141C184.375 1105.94 183.609 1107.12 182.844 1108.31C182.094 1109.48 181.336 1110.66 180.57 1111.85C179.82 1113.04 179.062 1114.23 178.297 1115.41C177.531 1116.6 176.766 1117.79 176 1118.98C175.25 1120.15 174.5 1121.33 173.75 1122.52V1122.68ZM212.445 1134.59C210.586 1134.59 208.836 1134.25 207.195 1133.58C205.555 1132.91 204.102 1131.88 202.836 1130.48C201.586 1129.09 200.602 1127.33 199.883 1125.19C199.164 1123.03 198.805 1120.47 198.805 1117.5V1117.45C198.805 1113.73 199.352 1110.54 200.445 1107.87C201.555 1105.2 203.141 1103.15 205.203 1101.73C207.266 1100.3 209.727 1099.59 212.586 1099.59C214.68 1099.59 216.562 1099.97 218.234 1100.72C219.922 1101.45 221.312 1102.48 222.406 1103.79C223.516 1105.1 224.242 1106.61 224.586 1108.31L224.656 1108.57H218.656L218.562 1108.36C218.266 1107.58 217.836 1106.91 217.273 1106.34C216.727 1105.77 216.055 1105.32 215.258 1105.01C214.477 1104.68 213.578 1104.52 212.562 1104.52C210.75 1104.52 209.273 1105.05 208.133 1106.11C206.992 1107.16 206.141 1108.55 205.578 1110.3C205.016 1112.05 204.695 1114 204.617 1116.14C204.602 1116.34 204.586 1116.55 204.57 1116.75C204.57 1116.95 204.57 1117.16 204.57 1117.36L205.625 1122.96C205.625 1124.2 205.922 1125.32 206.516 1126.34C207.109 1127.35 207.922 1128.16 208.953 1128.75C209.984 1129.34 211.125 1129.64 212.375 1129.64C213.641 1129.64 214.781 1129.35 215.797 1128.77C216.828 1128.18 217.641 1127.39 218.234 1126.41C218.844 1125.41 219.148 1124.3 219.148 1123.08V1123.03C219.148 1121.75 218.859 1120.62 218.281 1119.63C217.703 1118.63 216.906 1117.85 215.891 1117.29C214.891 1116.73 213.742 1116.45 212.445 1116.45C211.164 1116.45 210.008 1116.73 208.977 1117.29C207.945 1117.84 207.125 1118.6 206.516 1119.59C205.922 1120.55 205.625 1121.67 205.625 1122.94V1122.96H204.195V1117.22H204.711C205.148 1116.19 205.805 1115.27 206.68 1114.45C207.57 1113.64 208.633 1112.99 209.867 1112.51C211.102 1112.02 212.484 1111.78 214.016 1111.78C216.188 1111.78 218.102 1112.26 219.758 1113.21C221.43 1114.16 222.734 1115.48 223.672 1117.15C224.625 1118.8 225.102 1120.7 225.102 1122.82V1122.87C225.102 1125.15 224.555 1127.17 223.461 1128.94C222.367 1130.69 220.867 1132.07 218.961 1133.09C217.055 1134.09 214.883 1134.59 212.445 1134.59ZM242.516 1134.59C240.172 1134.59 238.109 1134.16 236.328 1133.3C234.547 1132.44 233.125 1131.27 232.062 1129.8C231.016 1128.32 230.414 1126.65 230.258 1124.79L230.234 1124.48H235.906L235.93 1124.65C236.086 1125.59 236.461 1126.44 237.055 1127.2C237.664 1127.97 238.438 1128.57 239.375 1129.01C240.312 1129.45 241.375 1129.66 242.562 1129.66C243.906 1129.66 245.086 1129.38 246.102 1128.82C247.133 1128.24 247.938 1127.45 248.516 1126.45C249.094 1125.44 249.383 1124.27 249.383 1122.94V1122.89C249.383 1121.59 249.094 1120.45 248.516 1119.47C247.938 1118.47 247.133 1117.69 246.102 1117.12C245.086 1116.55 243.914 1116.26 242.586 1116.26C241.633 1116.26 240.742 1116.4 239.914 1116.68C239.086 1116.96 238.352 1117.38 237.711 1117.92C237.398 1118.19 237.102 1118.48 236.82 1118.81C236.539 1119.12 236.297 1119.47 236.094 1119.84H230.844L232.461 1100.18H253.227V1105.12H237.289L236.352 1115.32H236.469C236.969 1114.55 237.594 1113.91 238.344 1113.38C239.109 1112.84 239.977 1112.44 240.945 1112.16C241.93 1111.86 242.984 1111.71 244.109 1111.71C246.266 1111.71 248.18 1112.2 249.852 1113.16C251.523 1114.12 252.836 1115.42 253.789 1117.08C254.742 1118.73 255.219 1120.64 255.219 1122.8V1122.84C255.219 1125.16 254.68 1127.2 253.602 1128.96C252.523 1130.73 251.031 1132.11 249.125 1133.11C247.219 1134.09 245.016 1134.59 242.516 1134.59ZM272.445 1134.59C270.586 1134.59 268.836 1134.25 267.195 1133.58C265.555 1132.91 264.102 1131.88 262.836 1130.48C261.586 1129.09 260.602 1127.33 259.883 1125.19C259.164 1123.03 258.805 1120.47 258.805 1117.5V1117.45C258.805 1113.73 259.352 1110.54 260.445 1107.87C261.555 1105.2 263.141 1103.15 265.203 1101.73C267.266 1100.3 269.727 1099.59 272.586 1099.59C274.68 1099.59 276.562 1099.97 278.234 1100.72C279.922 1101.45 281.312 1102.48 282.406 1103.79C283.516 1105.1 284.242 1106.61 284.586 1108.31L284.656 1108.57H278.656L278.562 1108.36C278.266 1107.58 277.836 1106.91 277.273 1106.34C276.727 1105.77 276.055 1105.32 275.258 1105.01C274.477 1104.68 273.578 1104.52 272.562 1104.52C270.75 1104.52 269.273 1105.05 268.133 1106.11C266.992 1107.16 266.141 1108.55 265.578 1110.3C265.016 1112.05 264.695 1114 264.617 1116.14C264.602 1116.34 264.586 1116.55 264.57 1116.75C264.57 1116.95 264.57 1117.16 264.57 1117.36L265.625 1122.96C265.625 1124.2 265.922 1125.32 266.516 1126.34C267.109 1127.35 267.922 1128.16 268.953 1128.75C269.984 1129.34 271.125 1129.64 272.375 1129.64C273.641 1129.64 274.781 1129.35 275.797 1128.77C276.828 1128.18 277.641 1127.39 278.234 1126.41C278.844 1125.41 279.148 1124.3 279.148 1123.08V1123.03C279.148 1121.75 278.859 1120.62 278.281 1119.63C277.703 1118.63 276.906 1117.85 275.891 1117.29C274.891 1116.73 273.742 1116.45 272.445 1116.45C271.164 1116.45 270.008 1116.73 268.977 1117.29C267.945 1117.84 267.125 1118.6 266.516 1119.59C265.922 1120.55 265.625 1121.67 265.625 1122.94V1122.96H264.195V1117.22H264.711C265.148 1116.19 265.805 1115.27 266.68 1114.45C267.57 1113.64 268.633 1112.99 269.867 1112.51C271.102 1112.02 272.484 1111.78 274.016 1111.78C276.188 1111.78 278.102 1112.26 279.758 1113.21C281.43 1114.16 282.734 1115.48 283.672 1117.15C284.625 1118.8 285.102 1120.7 285.102 1122.82V1122.87C285.102 1125.15 284.555 1127.17 283.461 1128.94C282.367 1130.69 280.867 1132.07 278.961 1133.09C277.055 1134.09 274.883 1134.59 272.445 1134.59Z" fill="#F6F5FA"/>
<path d="M616.797 1134H612.25L618.672 1100.18H623.219L621.203 1110.8H620.992L618.742 1122.61H618.953L616.797 1134ZM628.188 1134H623.594L625.75 1122.59H625.961L628.211 1110.77H628L630.039 1100.18H634.609L628.188 1134ZM635.594 1125.26H608.57L609.438 1120.8H617.078V1121.02H628.68V1120.8H636.438L635.594 1125.26ZM637.773 1113H629.898V1112.79H618.32L618.297 1113H610.727L611.594 1108.55H638.617L637.773 1113ZM641.594 1134V1100.18H663.156V1105.27H647.641V1115.27H661.82V1120.2H647.641V1134H641.594ZM680.219 1134.59C678.359 1134.59 676.609 1134.25 674.969 1133.58C673.328 1132.91 671.875 1131.88 670.609 1130.48C669.359 1129.09 668.375 1127.33 667.656 1125.19C666.938 1123.03 666.578 1120.47 666.578 1117.5V1117.45C666.578 1113.73 667.125 1110.54 668.219 1107.87C669.328 1105.2 670.914 1103.15 672.977 1101.73C675.039 1100.3 677.5 1099.59 680.359 1099.59C682.453 1099.59 684.336 1099.97 686.008 1100.72C687.695 1101.45 689.086 1102.48 690.18 1103.79C691.289 1105.1 692.016 1106.61 692.359 1108.31L692.43 1108.57H686.43L686.336 1108.36C686.039 1107.58 685.609 1106.91 685.047 1106.34C684.5 1105.77 683.828 1105.32 683.031 1105.01C682.25 1104.68 681.352 1104.52 680.336 1104.52C678.523 1104.52 677.047 1105.05 675.906 1106.11C674.766 1107.16 673.914 1108.55 673.352 1110.3C672.789 1112.05 672.469 1114 672.391 1116.14C672.375 1116.34 672.359 1116.55 672.344 1116.75C672.344 1116.95 672.344 1117.16 672.344 1117.36L673.398 1122.96C673.398 1124.2 673.695 1125.32 674.289 1126.34C674.883 1127.35 675.695 1128.16 676.727 1128.75C677.758 1129.34 678.898 1129.64 680.148 1129.64C681.414 1129.64 682.555 1129.35 683.57 1128.77C684.602 1128.18 685.414 1127.39 686.008 1126.41C686.617 1125.41 686.922 1124.3 686.922 1123.08V1123.03C686.922 1121.75 686.633 1120.62 686.055 1119.63C685.477 1118.63 684.68 1117.85 683.664 1117.29C682.664 1116.73 681.516 1116.45 680.219 1116.45C678.938 1116.45 677.781 1116.73 676.75 1117.29C675.719 1117.84 674.898 1118.6 674.289 1119.59C673.695 1120.55 673.398 1121.67 673.398 1122.94V1122.96H671.969V1117.22H672.484C672.922 1116.19 673.578 1115.27 674.453 1114.45C675.344 1113.64 676.406 1112.99 677.641 1112.51C678.875 1112.02 680.258 1111.78 681.789 1111.78C683.961 1111.78 685.875 1112.26 687.531 1113.21C689.203 1114.16 690.508 1115.48 691.445 1117.15C692.398 1118.8 692.875 1120.7 692.875 1122.82V1122.87C692.875 1125.15 692.328 1127.17 691.234 1128.94C690.141 1130.69 688.641 1132.07 686.734 1133.09C684.828 1134.09 682.656 1134.59 680.219 1134.59ZM698.266 1134V1100.18H719.828V1105.27H704.312V1115.27H718.492V1120.2H704.312V1134H698.266ZM736.258 1134.59C733.914 1134.59 731.852 1134.16 730.07 1133.3C728.289 1132.44 726.867 1131.27 725.805 1129.8C724.758 1128.32 724.156 1126.65 724 1124.79L723.977 1124.48H729.648L729.672 1124.65C729.828 1125.59 730.203 1126.44 730.797 1127.2C731.406 1127.97 732.18 1128.57 733.117 1129.01C734.055 1129.45 735.117 1129.66 736.305 1129.66C737.648 1129.66 738.828 1129.38 739.844 1128.82C740.875 1128.24 741.68 1127.45 742.258 1126.45C742.836 1125.44 743.125 1124.27 743.125 1122.94V1122.89C743.125 1121.59 742.836 1120.45 742.258 1119.47C741.68 1118.47 740.875 1117.69 739.844 1117.12C738.828 1116.55 737.656 1116.26 736.328 1116.26C735.375 1116.26 734.484 1116.4 733.656 1116.68C732.828 1116.96 732.094 1117.38 731.453 1117.92C731.141 1118.19 730.844 1118.48 730.562 1118.81C730.281 1119.12 730.039 1119.47 729.836 1119.84H724.586L726.203 1100.18H746.969V1105.12H731.031L730.094 1115.32H730.211C730.711 1114.55 731.336 1113.91 732.086 1113.38C732.852 1112.84 733.719 1112.44 734.688 1112.16C735.672 1111.86 736.727 1111.71 737.852 1111.71C740.008 1111.71 741.922 1112.2 743.594 1113.16C745.266 1114.12 746.578 1115.42 747.531 1117.08C748.484 1118.73 748.961 1120.64 748.961 1122.8V1122.84C748.961 1125.16 748.422 1127.2 747.344 1128.96C746.266 1130.73 744.773 1132.11 742.867 1133.11C740.961 1134.09 738.758 1134.59 736.258 1134.59ZM753.531 1134V1100.18H775.094V1105.27H759.578V1115.27H773.758V1120.2H759.578V1134H753.531ZM774.812 1134L786.906 1100.18H791.992V1106.2H790.234L781.141 1134H774.812ZM780.93 1125.26L782.547 1120.59H798.039L799.656 1125.26H780.93ZM799.445 1134L790.352 1106.2V1100.18H793.703L805.773 1134H799.445Z" fill="#FF6C3E"/>
</g>
<defs>
<clipPath id="clip0_28_35">
<rect width="1590" height="1193" fill="white"/>
</clipPath>
</defs>
</svg>
